<?xml version="1.0" encoding="utf-8" ?>
<!DOCTYPE svg PUBLIC "-//W3C//DTD SVG 1.1//EN" "http://www.w3.org/Graphics/SVG/1.1/DTD/svg11.dtd">
<svg height="550" version="1.1" width="652" xmlns="http://www.w3.org/2000/svg">
<rect fill="#ffffff" height="122" stroke="#ffffff" stroke-width="1" width="147" x="62" y="414"/>
<rect fill="none" height="122" stroke="#000000" stroke-width="1" width="147" x="62" y="414"/>
<text font-family="Dialog" font-size="12" x="99" y="428">
ShoppingList</text>
<rect fill="#000000" height="1" stroke="#000000" stroke-width="1" width="147" x="62" y="438"/>
<text font-family="Dialog" font-size="12" x="66" y="453">
shopping_list_id : Integer</text>
<text font-family="Dialog" font-size="12" x="66" y="470">
title : String</text>
<text font-family="Dialog" font-size="12" x="66" y="487">
description : String</text>
<text font-family="Dialog" font-size="12" x="66" y="504">
creation_date : String</text>
<rect fill="#000000" height="1" stroke="#000000" stroke-width="1" width="147" x="62" y="514"/>
<rect fill="#ffffff" height="190" stroke="#ffffff" stroke-width="1" width="184" x="454" y="14"/>
<rect fill="none" height="190" stroke="#000000" stroke-width="1" width="184" x="454" y="14"/>
<text font-family="Dialog" font-size="12" x="497" y="28">
ShoppingListItem</text>
<rect fill="#000000" height="1" stroke="#000000" stroke-width="1" width="184" x="454" y="38"/>
<text font-family="Dialog" font-size="12" x="458" y="53">
shopping_list_item_id : Integer</text>
<text font-family="Dialog" font-size="12" x="458" y="70">
title : String</text>
<text font-family="Dialog" font-size="12" x="458" y="87">
quantity : Integer</text>
<text font-family="Dialog" font-size="12" x="458" y="104">
total_expense : Integer</text>
<text font-family="Dialog" font-size="12" x="458" y="121">
newAttr : Integer</text>
<text font-family="Dialog" font-size="12" x="458" y="138">
is_purchased : Boolean</text>
<text font-family="Dialog" font-size="12" x="458" y="155">
creation_date : String</text>
<text font-family="Dialog" font-size="12" x="458" y="172">
modified_date : String</text>
<rect fill="#000000" height="1" stroke="#000000" stroke-width="1" width="184" x="454" y="182"/>
<rect fill="#ffffff" height="177" stroke="#ffffff" stroke-width="1" width="254" x="14" y="22"/>
<rect fill="none" height="177" stroke="#000000" stroke-width="1" width="254" x="14" y="22"/>
<text font-family="Dialog" font-size="12" x="127" y="36">
User</text>
<rect fill="#000000" height="1" stroke="#000000" stroke-width="1" width="254" x="14" y="46"/>
<text font-family="Dialog" font-size="12" x="18" y="61">
user_id : Integer</text>
<text font-family="Dialog" font-size="12" x="18" y="78">
first_name : String</text>
<text font-family="Dialog" font-size="12" x="18" y="95">
last_name : String</text>
<text font-family="Dialog" font-size="12" x="18" y="112">
phone_number : String</text>
<text font-family="Dialog" font-size="12" x="18" y="129">
email : String</text>
<text font-family="Dialog" font-size="12" x="18" y="146">
password : String</text>
<rect fill="#000000" height="1" stroke="#000000" stroke-width="1" width="254" x="14" y="156"/>
<text font-family="Dialog" font-size="12" x="18" y="171">
is_lockedout(email : String) : Boolean</text>
<text font-family="Dialog" font-size="12" x="18" y="188">
encrypt_password(password : String) : String</text>
<polyline fill="none" points="134,198 134,414" stroke="#000000" stroke-width="1"/>
<text font-family="Dialog" font-size="12" x="137" y="311">
creates</text>
<polyline fill="none" points="267,102 454,102" stroke="#000000" stroke-width="1"/>
<text font-family="Dialog" font-size="12" x="316" y="82">
creates</text>
</svg>
